<svg id="logo-svg" xmlns="http://www.w3.org/2000/svg" viewBox="0 0 720 560" preserveAspectRatio="xMinYMin meet">
<style>path{stroke-width:4;}.a{fill:#9E9B9C;stroke:#9E9B9C;}.b{fill:#254094;stroke:#254094;}</style>
<path class="a" d="M229.6 325.5c-0.9 1.7-2.6 2.7-4.5 2.7 -1.9 0-3.6-1.1-4.4-2.8l-96.2-192c-1.7-3.4-5.2-5.5-8.9-5.5H33.1c-3.5 0-6.7 1.8-8.5 4.7s-2 6.6-0.5 9.7l192 389.9c1.7 3.4 5.1 5.6 8.9 5.6 3.8 0 7.3-2.1 9-5.5l73.1-146.7 -54.3-105.7L229.6 325.5z"/>
<path class="a" d="M695.4 132.7c-1.8-2.9-5-4.7-8.5-4.7h-82.4c-3.8 0-7.2 2.1-8.9 5.5l-20 39.9v0L522.1 280v0l-22.8 45.4c-0.8 1.7-2.6 2.8-4.4 2.8 -1.9 0-3.6-1-4.5-2.7L467.1 280l-54.3 105.7 73.1 146.7c1.7 3.4 5.2 5.5 9 5.5 3.8 0 7.3-2.2 8.9-5.6l192-389.9C697.4 139.3 697.2 135.6 695.4 132.7z"/>
<path class="a" d="M360 273.9c1.9 0 3.6-1.1 4.5-2.8l48.3-96.8 -43.9-85.4c-1.7-3.3-5.1-5.4-8.9-5.4s-7.2 2.1-8.9 5.4l-43.9 85.4 48.3 96.8C356.4 272.8 358.1 273.9 360 273.9z"/>
<path class="b" d="M124.4 426.5c-1.7 3.4-5.2 5.5-8.9 5.5H33.1c-3.5 0-6.7-1.8-8.5-4.7 -1.8-2.9-2-6.6-0.5-9.7L91.9 280l52.5 106.6L124.4 426.5z"/>
<path class="b" d="M595.6 426.5c1.7 3.4 5.2 5.5 8.9 5.5h82.4c3.5 0 6.7-1.8 8.5-4.7s2-6.6 0.5-9.7L628.1 280l-52.5 106.6L595.6 426.5z"/>
<path class="b" d="M197.9 280L144.4 173.4l71.7-145.7c1.7-3.4 5.1-5.6 8.9-5.6 3.8 0 7.3 2.1 9 5.5l121.4 243.5c0.8 1.7 2.6 2.8 4.5 2.8s3.6-1.1 4.5-2.8L485.9 27.6c1.7-3.4 5.2-5.5 9-5.5 3.8 0 7.3 2.2 8.9 5.6l71.7 145.7L522.1 280l-22.8-45.4c-0.8-1.7-2.6-2.7-4.4-2.8 -1.9 0-3.6 1-4.5 2.7L368.9 471.1c-1.7 3.3-5.1 5.4-8.9 5.4s-7.2-2.1-8.9-5.4L229.6 234.5c-0.9-1.7-2.6-2.7-4.5-2.7 -1.9 0-3.6 1.1-4.4 2.8L197.9 280z"/>
</svg>
